<svg width="156" height="12" fill="none" xmlns="http://www.w3.org/2000/svg"><path d="M11.74 5.21a.855.855 0 00.217-.882.855.855 0 00-.695-.586L8.357 3.32a.38.38 0 01-.286-.208L6.77.48a.855.855 0 00-.77-.48.855.855 0 00-.772.48l-1.3 2.632a.38.38 0 01-.286.208l-2.905.422a.855.855 0 00-.695.586.855.855 0 00.217.882l2.103 2.05a.38.38 0 01.11.336l-.497 2.893a.843.843 0 00.188.698.87.87 0 001.06.21l2.6-1.367a.39.39 0 01.353 0l2.599 1.367a.863.863 0 001.248-.907l-.496-2.894a.38.38 0 01.11-.336l2.102-2.05zM27.74 5.21a.855.855 0 00.217-.882.855.855 0 00-.695-.586l-2.905-.422a.38.38 0 01-.286-.208L22.77.48a.855.855 0 00-.77-.48.855.855 0 00-.772.48l-1.3 2.632a.38.38 0 01-.286.208l-2.905.422a.855.855 0 00-.695.586.855.855 0 00.217.882l2.103 2.05a.38.38 0 01.11.336l-.497 2.893a.842.842 0 00.188.698.87.87 0 001.06.21l2.6-1.367a.39.39 0 01.353 0l2.599 1.367a.863.863 0 001.248-.907l-.496-2.894a.38.38 0 01.11-.336l2.102-2.05zM43.74 5.21a.855.855 0 00.217-.882.855.855 0 00-.695-.586l-2.905-.422a.38.38 0 01-.286-.208L38.77.48a.855.855 0 00-.77-.48.855.855 0 00-.772.48l-1.3 2.632a.38.38 0 01-.286.208l-2.905.422a.855.855 0 00-.695.586.855.855 0 00.217.882l2.103 2.05a.38.38 0 01.11.336l-.497 2.893a.842.842 0 00.188.698.87.87 0 001.06.21l2.6-1.367a.39.39 0 01.353 0l2.599 1.367a.863.863 0 001.248-.907l-.496-2.894a.38.38 0 01.11-.336l2.102-2.05zM59.74 5.21a.855.855 0 00.217-.882.855.855 0 00-.695-.586l-2.905-.422a.38.38 0 01-.286-.208L54.77.48a.855.855 0 00-.77-.48.855.855 0 00-.772.48l-1.3 2.632a.38.38 0 01-.286.208l-2.905.422a.855.855 0 00-.695.586.855.855 0 00.217.882l2.103 2.05a.38.38 0 01.11.336l-.497 2.893a.842.842 0 00.188.698.87.87 0 001.06.21l2.6-1.367a.39.39 0 01.353 0l2.599 1.367a.863.863 0 001.248-.907l-.496-2.894a.38.38 0 01.11-.336l2.102-2.05zM75.74 5.21a.855.855 0 00.217-.882.855.855 0 00-.695-.586l-2.905-.422a.38.38 0 01-.286-.208L70.77.48a.855.855 0 00-.77-.48.855.855 0 00-.772.48l-1.3 2.632a.38.38 0 01-.286.208l-2.905.422a.855.855 0 00-.695.586.855.855 0 00.217.882l2.103 2.05a.38.38 0 01.11.336l-.497 2.893a.842.842 0 00.188.698.87.87 0 001.06.21l2.6-1.367a.39.39 0 01.353 0l2.599 1.367a.863.863 0 001.248-.907l-.496-2.894a.38.38 0 01.11-.336l2.102-2.05zM91.74 5.21a.855.855 0 00.217-.882.855.855 0 00-.695-.586l-2.905-.422a.38.38 0 01-.286-.208L86.77.48a.855.855 0 00-.77-.48.855.855 0 00-.772.48l-1.3 2.632a.38.38 0 01-.286.208l-2.905.422a.855.855 0 00-.695.586.855.855 0 00.217.882l2.103 2.05a.38.38 0 01.11.336l-.497 2.893a.842.842 0 00.188.698.87.87 0 001.06.21l2.6-1.367a.39.39 0 01.353 0l2.599 1.367a.863.863 0 001.248-.907l-.496-2.894a.38.38 0 01.11-.336l2.102-2.05zM107.74 5.21a.855.855 0 00.217-.882.855.855 0 00-.695-.586l-2.905-.422a.379.379 0 01-.286-.208L102.772.48A.856.856 0 00102 0a.853.853 0 00-.771.48l-1.3 2.632a.38.38 0 01-.286.208l-2.905.422a.855.855 0 00-.695.586.855.855 0 00.217.882l2.103 2.05a.38.38 0 01.11.336l-.497 2.893a.842.842 0 00.188.698.87.87 0 001.06.21l2.599-1.367a.39.39 0 01.354 0l2.599 1.367a.861.861 0 001.248-.907l-.496-2.894a.382.382 0 01.109-.336l2.103-2.05zM123.74 5.21a.855.855 0 00.217-.882.855.855 0 00-.695-.585l-2.905-.423a.379.379 0 01-.286-.208L118.772.48A.856.856 0 00118 0a.856.856 0 00-.772.48l-1.299 2.632a.379.379 0 01-.286.208l-2.906.423a.854.854 0 00-.694.585.855.855 0 00.217.882l2.103 2.05c.089.087.13.213.109.336l-.496 2.894a.854.854 0 00.342.841c.267.195.614.22.907.066l2.598-1.366a.38.38 0 01.354 0l2.599 1.366a.856.856 0 00.906-.066.854.854 0 00.342-.841l-.496-2.894a.382.382 0 01.109-.336l2.103-2.05zm-2.686 2.468l.497 2.893a.373.373 0 01-.152.372.374.374 0 01-.4.029l-2.598-1.367a.87.87 0 00-.802 0l-2.598 1.367a.374.374 0 01-.4-.03.372.372 0 01-.151-.37l.496-2.894a.86.86 0 00-.248-.762l-2.102-2.05a.372.372 0 01-.096-.39.372.372 0 01.306-.258l2.906-.422a.86.86 0 00.648-.47l1.299-2.634A.373.373 0 01118 .481c.148 0 .275.079.341.211l1.299 2.633c.125.254.367.43.648.47l2.905.423a.373.373 0 01.307.259c.046.14.01.286-.096.39l-2.102 2.049a.86.86 0 00-.248.762zM139.74 5.21a.855.855 0 00.217-.882.855.855 0 00-.695-.585l-2.905-.423a.379.379 0 01-.286-.208L134.772.48A.856.856 0 00134 0a.856.856 0 00-.772.48l-1.299 2.632a.379.379 0 01-.286.208l-2.906.423a.854.854 0 00-.694.585.855.855 0 00.217.882l2.103 2.05c.089.087.13.213.109.336l-.496 2.894a.854.854 0 00.342.841c.267.195.614.22.907.066l2.598-1.366a.38.38 0 01.354 0l2.599 1.366a.856.856 0 00.906-.066.854.854 0 00.342-.841l-.496-2.894a.382.382 0 01.109-.336l2.103-2.05zm-2.686 2.468l.497 2.893a.373.373 0 01-.152.372.374.374 0 01-.4.029l-2.598-1.367a.87.87 0 00-.802 0l-2.598 1.367a.374.374 0 01-.4-.03.372.372 0 01-.151-.37l.496-2.894a.86.86 0 00-.248-.762l-2.102-2.05a.372.372 0 01-.096-.39.372.372 0 01.306-.258l2.906-.422a.86.86 0 00.648-.47l1.299-2.634A.373.373 0 01134 .481c.148 0 .275.079.341.211l1.299 2.633c.125.254.367.43.648.47l2.905.423a.373.373 0 01.307.259c.046.14.01.286-.096.39l-2.102 2.049a.86.86 0 00-.248.762zM155.74 5.21a.855.855 0 00.217-.882.855.855 0 00-.695-.585l-2.905-.423a.379.379 0 01-.286-.208L150.772.48A.856.856 0 00150 0a.856.856 0 00-.772.48l-1.299 2.632a.379.379 0 01-.286.208l-2.906.423a.854.854 0 00-.694.585.855.855 0 00.217.882l2.103 2.05c.089.087.13.213.109.336l-.496 2.894a.854.854 0 00.342.841c.267.195.614.22.907.066l2.598-1.366a.38.38 0 01.354 0l2.599 1.366a.856.856 0 00.906-.066.854.854 0 00.342-.841l-.496-2.894a.382.382 0 01.109-.336l2.103-2.05zm-2.686 2.468l.497 2.893a.373.373 0 01-.152.372.374.374 0 01-.4.029l-2.598-1.367a.87.87 0 00-.802 0l-2.598 1.367a.374.374 0 01-.4-.03.372.372 0 01-.151-.37l.496-2.894a.86.86 0 00-.248-.762l-2.102-2.05a.372.372 0 01-.096-.39.372.372 0 01.306-.258l2.906-.422a.86.86 0 00.648-.47l1.299-2.634A.373.373 0 01150 .481c.148 0 .275.079.341.211l1.299 2.633c.125.254.367.43.648.47l2.905.423a.373.373 0 01.307.259c.046.14.01.286-.096.39l-2.102 2.049a.86.86 0 00-.248.762z" fill="#9D2929"/></svg>